<svg width="1252" height="220" viewBox="0 0 1252 220" fill="none" xmlns="http://www.w3.org/2000/svg">
<path fill-rule="evenodd" clip-rule="evenodd" d="M23.2142 70.348L0 61.0437V169.5L32 173.5C39.3453 176.345 49.3381 175.365 60.9654 174.225C85.9473 171.775 118.475 168.586 148.5 201C180.083 220.142 200.628 216.787 225.098 212.791C236.533 210.924 248.825 208.917 263.5 209C288.533 208.859 319.908 196.894 350.733 185.139C376.971 175.133 402.811 165.279 424 163C446.772 160.735 454.872 170.67 462.688 180.258C470.777 190.181 478.564 199.732 502 195C559.581 185.787 596.853 199.309 625.7 209.774C653.212 219.755 673.061 226.956 695.556 209C715.035 193.392 737.992 157.353 761.484 120.475C793.878 69.6213 827.289 17.1714 854 14.5C881.6 11.548 902.466 36.7502 924.564 63.4409C939.569 81.5644 955.142 100.374 973.778 111.522C1010.57 133.819 1045.12 128.798 1080.86 123.605C1090.14 122.256 1099.5 120.896 1109 120C1131.8 117.861 1147.65 135.007 1161.69 150.184C1176.18 165.862 1188.74 179.44 1205 167.5L1252 101.5V5.3916L1228.53 28.609C1205.92 51.4785 1159.23 98.435 1112.89 102.783C1074.58 106.397 1035.85 81.7664 997.252 57.2176C989.42 52.2368 981.594 47.2594 973.778 42.522C927.697 14.9568 881.008 -4.1736 834.667 0.782914C788.586 5.3916 741.897 33.2177 695.556 70.348C686.156 77.8507 676.732 85.7766 667.29 93.7169C630.443 124.705 593.333 155.914 556.444 163.044C531.864 168.007 507.11 162.405 482.328 156.796C460.652 151.891 438.955 146.98 417.333 149.131C395.935 151.432 374.406 160.54 352.842 169.663C327.967 180.186 303.045 190.73 278.222 190.87C240.726 190.657 202.827 166.436 165.04 142.286C156.389 136.757 147.744 131.232 139.111 126C93.0306 98.435 46.3414 79.3046 23.2142 70.348Z" fill="url(#paint0_linear)"/>
<defs>
<linearGradient id="paint0_linear" x1="626" y1="0" x2="626" y2="219.998" gradientUnits="userSpaceOnUse">
<stop offset="0.239583" stop-color="#FF7E7E" stop-opacity="0.44"/>
<stop offset="0.53125" stop-color="#FF9900" stop-opacity="0.21"/>
<stop offset="1" stop-color="white" stop-opacity="0.0819719"/>
</linearGradient>
</defs>
</svg>
